<svg width="11" height="11" viewBox="0 0 11 11" fill="none" xmlns="http://www.w3.org/2000/svg">
<path d="M6.1449 5.50287L10.8601 0.787615C11.0421 0.611853 11.0472 0.321852 10.8714 0.139863C10.6957 -0.0421259 10.4057 -0.0471722 10.2237 0.128589C10.2199 0.132267 10.2161 0.136025 10.2124 0.139863L5.49712 4.85512L0.781885 0.139836C0.599897 -0.0359254 0.309897 -0.0308791 0.134136 0.15111C-0.0373304 0.328643 -0.0373304 0.610082 0.134136 0.787615L4.84937 5.50287L0.134136 10.2181C-0.0447119 10.397 -0.0447119 10.687 0.134136 10.8659C0.31301 11.0447 0.60301 11.0447 0.781885 10.8659L5.49712 6.15062L10.2124 10.8659C10.3944 11.0416 10.6844 11.0366 10.8601 10.8546C11.0316 10.6771 11.0316 10.3956 10.8601 10.2181L6.1449 5.50287Z" fill="#2A364E"/>
</svg>
