<svg width="20" height="20" viewBox="0 0 20 20" fill="none" xmlns="http://www.w3.org/2000/svg">
<path d="M18.3334 0.750001H1.54143C1.24526 0.749455 0.973746 0.910868 0.838361 1.16793C0.70111 1.42844 0.725199 1.74216 0.900545 1.98009L7.05241 10.4348C7.05447 10.4377 7.05671 10.4404 7.05876 10.4433C7.28229 10.7377 7.4031 11.0943 7.40385 11.4608V18.3538C7.40254 18.5581 7.48471 18.7541 7.63223 18.8989C7.77975 19.0437 7.98031 19.125 8.18945 19.125C8.29589 19.125 8.40103 19.1042 8.49925 19.0645L11.9561 17.7785C12.2659 17.6863 12.4715 17.4012 12.4715 17.0578V11.4608C12.4721 11.0944 12.5931 10.7377 12.8164 10.4433C12.8185 10.4404 12.8207 10.4377 12.8228 10.4348L18.9745 1.97973C19.1498 1.74198 19.1739 1.42844 19.0366 1.16793C18.9013 0.910868 18.6297 0.749455 18.3334 0.750001ZM12.0456 9.89077C11.702 10.3457 11.5162 10.8957 11.5151 11.4608V16.9445L8.35994 18.1181V11.4608C8.35882 10.8957 8.17302 10.3457 7.82924 9.89077L1.85683 1.68277H18.0182L12.0456 9.89077Z" fill="#2A364E"/>
</svg>
