<svg width="13" height="18" viewBox="0 0 13 18" fill="none" xmlns="http://www.w3.org/2000/svg">
<path d="M2.03617 9.29508C2.05758 9.2417 2.27174 8.41874 2.28674 8.36301C1.95239 7.85992 1.58097 6.21242 1.86586 4.87514C2.1732 2.913 4.25254 1.94844 6.21572 1.94844V1.94478C8.67365 1.94635 10.5135 3.31391 10.5155 5.66913C10.517 7.51264 9.40644 9.94943 7.51007 9.94943C7.50955 9.94943 7.50916 9.94943 7.50863 9.94943C6.83184 9.94943 5.97494 9.64248 5.75021 9.34102C5.4909 8.99361 5.42721 8.5649 5.56424 8.10683C5.90003 7.035 6.32822 5.75109 6.3782 4.89498C6.42453 4.08702 5.85122 3.56135 5.10774 3.56135C4.54826 3.56135 3.82161 3.8863 3.45946 4.79945C3.16034 5.55807 3.16674 6.35232 3.47904 7.22736C3.6008 7.56941 2.93927 9.79935 2.72733 10.5255C2.20074 12.3293 1.47983 14.6116 1.63396 15.8826L1.78273 17.1055L2.53 16.1262C3.56412 14.7725 4.63335 11.2708 4.91824 10.4187C5.76052 11.5095 7.51451 11.5408 7.71901 11.5408C10.2308 11.5408 13.0791 9.0466 12.9983 5.57517C12.9275 2.53088 10.6995 0 6.69624 0V0.00391516C2.88837 0.00391516 0.665873 2.0364 0.121798 4.60447C-0.376469 6.98566 0.731647 8.79799 2.03617 9.29508Z" fill="#ECEBEB"/>
</svg>
